<svg width="320" height="320" viewBox="0 0 320 320" fill="none" xmlns="http://www.w3.org/2000/svg">
<g clip-path="url(#clip0_201_11)">
<rect width="574" height="574" fill="white"/>
<path d="M88.48 120.36C90.784 120.36 93.056 120.68 95.296 121.32C97.536 121.896 99.488 122.664 101.152 123.624L98.656 131.976C97.568 131.464 96.48 131.048 95.392 130.728C94.304 130.344 93.12 130.152 91.84 130.152C89.6 130.152 87.936 130.824 86.848 132.168C85.76 133.448 85.216 135.656 85.216 138.792V143.208H96.736V152.424H85.216V189H72.544V152.424H65.536V143.208H72.544V136.104C72.544 130.984 73.984 127.08 76.864 124.392C79.744 121.704 83.616 120.36 88.48 120.36ZM152.667 165.768C152.667 169.544 152.059 172.936 150.842 175.944C149.627 178.952 147.931 181.512 145.755 183.624C143.643 185.672 141.147 187.272 138.267 188.424C135.387 189.512 132.283 190.056 128.955 190.056C125.627 190.056 122.523 189.544 119.642 188.52C116.826 187.496 114.362 185.992 112.25 184.008C110.202 182.024 108.57 179.592 107.354 176.712C106.202 173.768 105.626 170.44 105.626 166.728C105.626 162.824 106.234 159.368 107.45 156.36C108.666 153.288 110.33 150.728 112.442 148.68C114.619 146.568 117.147 144.968 120.027 143.88C122.907 142.792 126.011 142.248 129.339 142.248C132.667 142.248 135.738 142.76 138.554 143.784C141.435 144.808 143.899 146.312 145.947 148.296C148.059 150.216 149.691 152.648 150.842 155.592C152.059 158.536 152.667 161.928 152.667 165.768ZM139.515 166.248C139.515 163.624 139.227 161.384 138.651 159.528C138.075 157.672 137.307 156.168 136.346 155.016C135.387 153.864 134.267 153.032 132.986 152.52C131.707 151.944 130.395 151.656 129.051 151.656C127.707 151.656 126.426 151.912 125.21 152.424C123.995 152.872 122.907 153.672 121.947 154.824C120.987 155.912 120.219 157.384 119.642 159.24C119.066 161.096 118.778 163.432 118.778 166.248C118.778 168.744 119.066 170.92 119.642 172.776C120.219 174.568 120.987 176.04 121.947 177.192C122.971 178.344 124.091 179.208 125.306 179.784C126.586 180.36 127.898 180.648 129.242 180.648C130.587 180.648 131.867 180.424 133.083 179.976C134.299 179.464 135.387 178.632 136.346 177.48C137.307 176.328 138.075 174.856 138.651 173.064C139.227 171.208 139.515 168.936 139.515 166.248ZM196.116 143.208H208.884V189H199.379L198.035 183.816H197.651C196.948 184.52 196.116 185.256 195.155 186.024C194.259 186.728 193.171 187.4 191.891 188.04C190.675 188.616 189.267 189.096 187.667 189.48C186.131 189.864 184.403 190.056 182.483 190.056C177.555 190.056 173.651 188.68 170.771 185.928C167.955 183.176 166.547 179.112 166.547 173.736V143.208H179.315V172.68C179.315 175.432 179.955 177.416 181.235 178.632C182.579 179.848 184.275 180.456 186.323 180.456C188.627 180.456 190.58 179.976 192.18 179.016C193.844 178.056 195.156 176.936 196.116 175.656V143.208ZM225.16 189V143.208H235.048L236.488 151.464C237.576 149.032 239.304 146.888 241.672 145.032C244.04 143.176 247.016 142.248 250.6 142.248C252.072 142.248 253.384 142.408 254.536 142.728C255.688 143.048 256.648 143.432 257.416 143.88L255.304 153.96C254.6 153.576 253.704 153.256 252.616 153C251.528 152.68 250.248 152.52 248.776 152.52C245.64 152.52 243.016 153.576 240.904 155.688C238.856 157.736 237.832 161.128 237.832 165.864V189H225.16Z" fill="black"/>
<rect x="193" y="168" width="17" height="10" fill="white"/>
<rect x="176" y="178" width="21" height="4" fill="black"/>
</g>
<defs>
<clipPath id="clip0_201_11">
<rect width="320" height="320" fill="white"/>
</clipPath>
</defs>
</svg>
