<svg width="128" height="64" viewBox="0 0 128 64" fill="none" xmlns="http://www.w3.org/2000/svg">
<g clip-path="url(#clip0_203_2)">
<rect width="128" height="64" fill="white"/>
<path d="M23.26 10.82C24.508 10.82 25.7387 10.9933 26.952 11.34C28.1653 11.652 29.2227 12.068 30.124 12.588L28.772 17.112C28.1827 16.8347 27.5933 16.6093 27.004 16.436C26.4147 16.228 25.7733 16.124 25.08 16.124C23.8667 16.124 22.9653 16.488 22.376 17.216C21.7867 17.9093 21.492 19.1053 21.492 20.804V23.196H27.732V28.188H21.492V48H14.628V28.188H10.832V23.196H14.628V19.348C14.628 16.5747 15.408 14.46 16.968 13.004C18.528 11.548 20.6253 10.82 23.26 10.82ZM58.0277 35.416C58.0277 37.4613 57.6984 39.2987 57.0397 40.928C56.381 42.5573 55.4624 43.944 54.2837 45.088C53.1397 46.1973 51.7877 47.064 50.2277 47.688C48.6677 48.2773 46.9864 48.572 45.1837 48.572C43.381 48.572 41.6997 48.2947 40.1397 47.74C38.6144 47.1853 37.2797 46.3707 36.1357 45.296C35.0264 44.2213 34.1424 42.904 33.4837 41.344C32.8597 39.7493 32.5477 37.9467 32.5477 35.936C32.5477 33.8213 32.877 31.9493 33.5357 30.32C34.1944 28.656 35.0957 27.2693 36.2397 26.16C37.4184 25.016 38.7877 24.1493 40.3477 23.56C41.9077 22.9707 43.589 22.676 45.3917 22.676C47.1944 22.676 48.8584 22.9533 50.3837 23.508C51.9437 24.0627 53.2784 24.8773 54.3877 25.952C55.5317 26.992 56.4157 28.3093 57.0397 29.904C57.6984 31.4987 58.0277 33.336 58.0277 35.416ZM50.9037 35.676C50.9037 34.2547 50.7477 33.0413 50.4357 32.036C50.1237 31.0307 49.7077 30.216 49.1877 29.592C48.6677 28.968 48.061 28.5173 47.3677 28.24C46.6744 27.928 45.9637 27.772 45.2357 27.772C44.5077 27.772 43.8144 27.9107 43.1557 28.188C42.497 28.4307 41.9077 28.864 41.3877 29.488C40.8677 30.0773 40.4517 30.8747 40.1397 31.88C39.8277 32.8853 39.6717 34.1507 39.6717 35.676C39.6717 37.028 39.8277 38.2067 40.1397 39.212C40.4517 40.1827 40.8677 40.98 41.3877 41.604C41.9424 42.228 42.549 42.696 43.2077 43.008C43.901 43.32 44.6117 43.476 45.3397 43.476C46.0677 43.476 46.761 43.3547 47.4197 43.112C48.0784 42.8347 48.6677 42.384 49.1877 41.76C49.7077 41.136 50.1237 40.3387 50.4357 39.368C50.7477 38.3627 50.9037 37.132 50.9037 35.676ZM81.5626 23.196H88.4786V48H83.3306L82.6026 45.192H82.3946C82.0132 45.5733 81.5626 45.972 81.0426 46.388C80.5572 46.7693 79.9679 47.1333 79.2746 47.48C78.6159 47.792 77.8532 48.052 76.9866 48.26C76.1546 48.468 75.2186 48.572 74.1786 48.572C71.5092 48.572 69.3946 47.8267 67.8346 46.336C66.3092 44.8453 65.5466 42.644 65.5466 39.732V23.196H72.4626V39.16C72.4626 40.6507 72.8092 41.7253 73.5026 42.384C74.2306 43.0427 75.1492 43.372 76.2586 43.372C77.5066 43.372 78.5639 43.112 79.4306 42.592C80.3319 42.072 81.0426 41.4653 81.5626 40.772V23.196ZM97.295 48V23.196H102.651L103.431 27.668C104.02 26.3507 104.956 25.1893 106.239 24.184C107.522 23.1787 109.134 22.676 111.075 22.676C111.872 22.676 112.583 22.7627 113.207 22.936C113.831 23.1093 114.351 23.3173 114.767 23.56L113.623 29.02C113.242 28.812 112.756 28.6387 112.167 28.5C111.578 28.3267 110.884 28.24 110.087 28.24C108.388 28.24 106.967 28.812 105.823 29.956C104.714 31.0653 104.159 32.9027 104.159 35.468V48H97.295Z" fill="black"/>
<rect x="78" y="38" width="11" height="5" fill="white"/>
<rect x="72" y="43" width="8" height="2" fill="black"/>
</g>
<defs>
<clipPath id="clip0_203_2">
<rect width="128" height="64" fill="white"/>
</clipPath>
</defs>
</svg>
